<svg width="490" height="572" viewBox="284 266 490 572" fill="none" xmlns="http://www.w3.org/2000/svg" role="img" aria-labelledby="title desc">
  <title id="title">Doku rounded mark</title>
  <desc id="desc">Rounded minimalist D document mark with folded top corner (no background).</desc>

  <!-- D document silhouette with folded corner (currentColor for in-app theming; #000 fallback) -->
  <path
    fill="currentColor"
    fill-rule="evenodd"
    clip-rule="evenodd"
    d="M332 286H520C538 286 548 293 562 307L704 449C735 480 754 532 754 586C754 716 650 818 520 818H332Q304 818 304 790V314Q304 286 332 286M424 370Q396 370 396 398V684Q396 716 428 716H520C596 716 660 655 660 578V458H552V370H424"/>

  <!-- Tiny fold cue: takes the surface color in-app (var(--cream-content)); cream fallback here -->
  <path fill="#FDFBF5" d="M660 458H724L668 472H660Z"/>
</svg>
